<?xml version="1.0" encoding="utf-8"?>
<svg version="1.1" id="Laag_1" xmlns="http://www.w3.org/2000/svg" xmlns:xlink="http://www.w3.org/1999/xlink" x="0px" y="0px"
	 viewBox="0 0 1000 1000" style="enable-background:new 0 0 1000 1000;" xml:space="preserve">
<style type="text/css">
	.st0{fill:#FFFDF2;}
	.st1{fill:#E94F1E;}
	.st2{fill:#BADED2;}
	.st3{fill:#F3C7DF;}
	.st4{fill:#FFFFFF;}
	.st5{fill:#12100B;}
</style>
<g>
	<polygon class="st4" points="133.15,538.96 448.08,634.5 531.01,634.5 839.64,558.18 839.64,436.05 529.96,356.88 444.79,356.88 
		133.15,438.01 	"/>
	<g>
		<g>
			<path class="st5" d="M161.65,528.94l-1.13-76.25c5.2-1.03,15.43-2.93,23.51-5.03l0.79,18.14l-13.5,1.21l0.36,32l12.71,1.29
				l0.7,35.48L161.65,528.94z"/>
			<path class="st5" d="M189.84,537.43c-0.2-24.07-0.9-63.12-1.27-90.75c2.09-0.46,8.51-2.24,12.08-3.28l0.2,64.69
				c6.22,0.18,17.51,0.52,23.9,0.09l0.65,37.2L189.84,537.43z"/>
			<path class="st5" d="M229.97,546.07c0.06-28.69-0.11-83.44-0.37-108.35l27.9-6.91l2.59,85.32l15.41,1.91l-2-91.12l20.33-3.41
				c0.59,35.01,1.47,104.62,2.05,139.4C269.07,555.69,235.25,547.34,229.97,546.07z"/>
			<path class="st5" d="M302.55,565.1c1.44-45.64,2.2-98.25,2.59-143.3l124.38-29.09l1.04,72.91l-25.29,13.23l41.67,8.96
				l-0.7,110.53L302.55,565.1z M374.54,438.39l-39.05,7.32l0.61,28.58l38.62-3.54L374.54,438.39z M388.61,495.24l-51.32,0.88
				l0.09,38.1l52.47,6.66L388.61,495.24z"/>
		</g>
	</g>
</g>
</svg>
