<?xml version="1.0" encoding="utf-8"?>
<svg version="1.1" id="Laag_1" xmlns="http://www.w3.org/2000/svg" xmlns:xlink="http://www.w3.org/1999/xlink" x="0px" y="0px"
	 viewBox="0 0 1000 1000" style="enable-background:new 0 0 1000 1000;" xml:space="preserve">
<style type="text/css">
	.st0{fill:#FFFDF2;}
	.st1{fill:#E94F1E;}
	.st2{fill:#BADED2;}
	.st3{fill:#F3C7DF;}
	.st4{fill:#FFFFFF;}
	.st5{fill:#12100B;}
</style>
<g>
	<polygon class="st2" points="133.15,538.96 448.08,634.5 531.01,634.5 839.64,558.18 839.64,436.05 529.96,356.88 444.79,356.88 
		133.15,438.01 	"/>
	<g>
		<g>
			<path class="st0" d="M161.65,528.94l-1.13-76.25c5.2-1.03,15.43-2.93,23.51-5.03l0.79,18.14l-13.5,1.21l0.36,32l12.71,1.29
				l0.7,35.48L161.65,528.94z"/>
			<path class="st0" d="M189.84,537.43c-0.2-24.07-0.9-63.12-1.27-90.75c2.09-0.46,8.51-2.24,12.08-3.28l0.2,64.69
				c6.22,0.18,17.51,0.52,23.9,0.09l0.65,37.2L189.84,537.43z"/>
			<path class="st0" d="M229.97,546.07c0.06-28.69-0.11-83.44-0.37-108.35l27.9-6.91l2.59,85.32l15.41,1.91l-2-91.12l20.33-3.41
				c0.59,35.01,1.47,104.62,2.05,139.4C269.07,555.69,235.25,547.34,229.97,546.07z"/>
			<path class="st0" d="M302.55,565.1c1.44-45.64,2.2-98.25,2.59-143.3l124.38-29.09l1.04,72.91l-25.29,13.23l41.67,8.96
				l-0.7,110.53L302.55,565.1z M374.54,438.39l-39.05,7.32l0.61,28.58l38.62-3.54L374.54,438.39z M388.61,495.24l-51.32,0.88
				l0.09,38.1l52.47,6.66L388.61,495.24z"/>
		</g>
		<g>
			<path class="st0" d="M531.61,601.85c2.16-68.92,1.85-144.61,0-211.29l142.34,28.89l5.78,147.83L531.61,601.85z M639.46,447.49
				l-63.97-9.12c1.8,47.02,3.08,67.99,4.09,102.45l64.78-7.76L639.46,447.49z"/>
			<path class="st0" d="M730.22,559.87l-5.99-48.73l-4.89-7.41l-6.43,0.17l1.76,58.22l-22.31,5.81l-5.52-144.58l18.19,2.54
				l30.63,44.95l-1.31-38.53l23.38,5.89l1.48,115.21L730.22,559.87z"/>
			<path class="st0" d="M807.87,542.23l-41.66,10.13l-1.23-33.17l24.85-2.46l4.92-4.92l-0.49-7.64l-29.54-17.53l0.35-32.81
				l7.64-12.22l37.26,6.77l-0.18,27.78c-6.43-0.69-14.48-1.66-22.97-1.74c0.22,2.88,0,10.1,0,10.1l24.31,16.96l0.66,27.92
				L807.87,542.23z"/>
		</g>
		<g>
			<path class="st0" d="M520.83,551.38c0.15,9.2,1,41,1.06,51.62c0,0-51.03,0.28-65.2,0.61l0.52-36.72l42.98,3.48l-0.27-7.36
				l-42.78-11.81l0.9-21.5C472.98,534.97,503.25,545.32,520.83,551.38z"/>
			<path class="st0" d="M521.61,495.35l-30.68,0.3l0.23,12.05l28.88,4.46l0.69,22.79l-63.01-11.88l0.24-60.83l62.62,0.58
				L521.61,495.35z M468.08,479.65l0.24,30.76l8.49,1.99l-0.07-32.39L468.08,479.65z"/>
			<path class="st0" d="M520.87,420.07l-25.42,5.01l-3.67,4.31l-0.01,5.64l28.64-0.13l0.66,19.11l-62.65-0.97l-0.38-13.45
				l17.94-25.75l-17.62,0.93l0.68-23.32l61.46-3.14L520.87,420.07z"/>
		</g>
	</g>
</g>
</svg>
