<?xml version="1.0" encoding="utf-8"?>
<svg version="1.1" id="Laag_1" xmlns="http://www.w3.org/2000/svg" xmlns:xlink="http://www.w3.org/1999/xlink" x="0px" y="0px"
	 viewBox="0 0 1000 1000" style="enable-background:new 0 0 1000 1000;" xml:space="preserve">
<style type="text/css">
	.st0{fill:#FFFDF2;}
	.st1{fill:#E94F1E;}
	.st2{fill:#BADED2;}
	.st3{fill:#F3C7DF;}
	.st4{fill:#FFFFFF;}
	.st5{fill:#12100B;}
</style>
<g>
	<polygon class="st3" points="133.76,544.87 460.27,643.91 546.26,643.91 866.24,564.78 866.24,438.17 545.17,356.09 456.86,356.09 
		133.76,440.2 	"/>
	<g>
		<g>
			<path class="st4" d="M163.31,534.48l-1.17-79.05c5.39-1.07,16-3.04,24.37-5.21l0.82,18.8l-14,1.26l0.37,33.18l13.17,1.34
				l0.73,36.79L163.31,534.48z"/>
			<path class="st4" d="M192.53,543.27c-0.21-24.95-0.94-65.44-1.31-94.09c2.17-0.47,8.83-2.32,12.53-3.4l0.21,67.07
				c6.45,0.19,18.15,0.54,24.77,0.09l0.67,38.57L192.53,543.27z"/>
			<path class="st4" d="M234.14,552.23c0.06-29.75-0.12-86.51-0.38-112.34l28.93-7.16l2.68,88.46l15.98,1.98l-2.07-94.47l21.08-3.53
				c0.61,36.3,1.53,108.47,2.12,144.53C274.68,562.21,239.61,553.55,234.14,552.23z"/>
			<path class="st4" d="M309.39,571.97c1.49-47.32,2.28-101.86,2.69-148.57l128.96-30.16l1.08,75.59l-26.22,13.72l43.2,9.29
				l-0.73,114.59L309.39,571.97z M384.03,440.59l-40.49,7.59l0.63,29.63l40.04-3.67L384.03,440.59z M398.61,499.54l-53.21,0.91
				l0.1,39.5l54.4,6.9L398.61,499.54z"/>
		</g>
		<g>
			<path class="st4" d="M546.88,610.06c2.24-71.46,1.92-149.93,0-219.06l147.58,29.95l6,153.26L546.88,610.06z M658.7,450.03
				l-66.32-9.45c1.87,48.75,3.19,70.49,4.24,106.22l67.16-8.05L658.7,450.03z"/>
			<path class="st4" d="M752.79,566.54l-6.21-50.52l-5.07-7.68l-6.67,0.17l1.82,60.36l-23.14,6.02l-5.72-149.9l18.86,2.63
				l31.76,46.61l-1.36-39.95l24.24,6.11l1.54,119.45L752.79,566.54z"/>
			<path class="st4" d="M833.31,548.25l-43.19,10.51l-1.28-34.39l25.77-2.55l5.1-5.1l-0.51-7.92l-30.63-18.18l0.37-34.02l7.92-12.67
				l38.63,7.02l-0.19,28.8c-6.66-0.72-15.01-1.72-23.81-1.8c0.23,2.99,0,10.47,0,10.47l25.2,17.58l0.69,28.95L833.31,548.25z"/>
		</g>
		<g>
			<path class="st4" d="M535.7,557.74c0.15,9.54,1.04,42.51,1.1,53.52c0,0-52.91,0.29-67.6,0.63l0.54-38.07l44.56,3.61l-0.28-7.63
				l-44.36-12.25l0.93-22.29C486.09,540.73,517.48,551.46,535.7,557.74z"/>
			<path class="st4" d="M536.51,499.64l-31.81,0.31l0.24,12.49l29.94,4.62l0.71,23.63l-65.32-12.32l0.25-63.07l64.93,0.6
				L536.51,499.64z M481.01,483.37l0.25,31.9l8.8,2.06l-0.07-33.58L481.01,483.37z"/>
			<path class="st4" d="M535.75,421.6l-26.36,5.19l-3.8,4.46l-0.01,5.84l29.69-0.14l0.69,19.81l-64.96-1l-0.4-13.95l18.6-26.7
				l-18.27,0.97l0.7-24.17l63.72-3.26L535.75,421.6z"/>
		</g>
	</g>
</g>
</svg>
